<svg width="9" height="12" viewBox="0 0 9 12" fill="none" xmlns="http://www.w3.org/2000/svg">
<path d="M9 5.29649V8.79649C9 9.06171 8.89464 9.31606 8.70711 9.5036C8.51957 9.69114 8.26522 9.79649 8 9.79649H1C0.734784 9.79649 0.48043 9.69114 0.292893 9.5036C0.105357 9.31606 0 9.06171 0 8.79649V5.29649H9ZM6.5 0.796494C6.63261 0.796494 6.75979 0.849172 6.85355 0.94294C6.94732 1.03671 7 1.16389 7 1.29649V1.79649H8C8.26522 1.79649 8.51957 1.90185 8.70711 2.08939C8.89464 2.27692 9 2.53128 9 2.79649V4.29649H0V2.79649C0 2.53128 0.105357 2.27692 0.292893 2.08939C0.48043 1.90185 0.734784 1.79649 1 1.79649H2V1.29649C2 1.16389 2.05268 1.03671 2.14645 0.94294C2.24021 0.849172 2.36739 0.796494 2.5 0.796494C2.63261 0.796494 2.75979 0.849172 2.85355 0.94294C2.94732 1.03671 3 1.16389 3 1.29649V1.79649H6V1.29649C6 1.16389 6.05268 1.03671 6.14645 0.94294C6.24021 0.849172 6.36739 0.796494 6.5 0.796494Z" fill="#ABF3B9"/>
</svg>
