<svg width="19" height="24" viewBox="0 0 19 24" fill="none" xmlns="http://www.w3.org/2000/svg">
<path d="M15.0345 11.603C15.1647 11.6214 15.29 11.6653 15.4032 11.7321C15.5164 11.799 15.6153 11.8876 15.6943 11.9927C15.7732 12.0978 15.8307 12.2175 15.8633 12.3449C15.896 12.4723 15.9032 12.6048 15.8845 12.735C15.6339 14.469 14.8212 16.0729 13.5711 17.3005C12.3211 18.5282 10.7028 19.3117 8.96451 19.531V20.593C8.96451 20.8582 8.85915 21.1126 8.67162 21.3001C8.48408 21.4876 8.22973 21.593 7.96451 21.593C7.6993 21.593 7.44494 21.4876 7.25741 21.3001C7.06987 21.1126 6.96451 20.8582 6.96451 20.593V19.531C5.22648 19.3114 3.60848 18.5277 2.35868 17.3001C1.10887 16.0725 0.296273 14.4688 0.0455117 12.735C0.00785094 12.4724 0.076036 12.2057 0.235067 11.9934C0.394098 11.7811 0.630947 11.6406 0.893512 11.603C1.15608 11.5653 1.42285 11.6335 1.63514 11.7925C1.84743 11.9516 1.98785 12.1884 2.02551 12.451C2.23233 13.8786 2.94645 15.1839 4.03712 16.1279C5.12779 17.072 6.52202 17.5916 7.96451 17.5916C9.407 17.5916 10.8012 17.072 11.8919 16.1279C12.9826 15.1839 13.6967 13.8786 13.9035 12.451C13.9221 12.321 13.9662 12.1959 14.0332 12.0829C14.1002 11.9699 14.1887 11.8712 14.2939 11.7925C14.399 11.7138 14.5186 11.6565 14.6458 11.624C14.7731 11.5915 14.9045 11.5843 15.0345 11.603ZM7.96451 1.59299C8.78351 1.59299 9.55651 1.78999 10.2385 2.13899C9.78585 2.45738 9.43009 2.89478 9.21057 3.4028C8.99105 3.91082 8.91634 4.46966 8.99469 5.01751C9.07304 5.56536 9.30141 6.08085 9.65452 6.50698C10.0076 6.9331 10.4718 7.25324 10.9955 7.43199L11.3735 7.56199C11.5179 7.61126 11.6492 7.69293 11.7571 7.80074C11.8651 7.90855 11.947 8.03965 11.9965 8.18399L12.1255 8.56199C12.2955 9.06199 12.5895 9.49399 12.9645 9.82899V11.593C12.9645 12.9191 12.4377 14.1908 11.5 15.1285C10.5624 16.0662 9.29059 16.593 7.96451 16.593C6.63843 16.593 5.36666 16.0662 4.42898 15.1285C3.4913 14.1908 2.96451 12.9191 2.96451 11.593V6.59299C2.96451 5.2669 3.4913 3.99514 4.42898 3.05745C5.36666 2.11977 6.63843 1.59299 7.96451 1.59299ZM14.9645 0.592987C15.1516 0.592987 15.3349 0.645465 15.4937 0.744458C15.6524 0.843452 15.7802 0.98499 15.8625 1.15299L15.9105 1.26999L16.0405 1.64799C16.1777 2.05017 16.3988 2.41862 16.6891 2.72893C16.9794 3.03924 17.3323 3.28434 17.7245 3.44799L17.9095 3.51799L18.2875 3.64699C18.4747 3.71085 18.6388 3.82879 18.7589 3.98588C18.8791 4.14298 18.95 4.33218 18.9626 4.52956C18.9752 4.72694 18.929 4.92364 18.8299 5.09477C18.7307 5.2659 18.583 5.40379 18.4055 5.49099L18.2875 5.53899L17.9095 5.66899C17.5073 5.80619 17.1389 6.02727 16.8286 6.31758C16.5183 6.60789 16.2732 6.96082 16.1095 7.35299L16.0395 7.53799L15.9105 7.91599C15.8465 8.10312 15.7285 8.26709 15.5714 8.38715C15.4142 8.50721 15.225 8.57798 15.0276 8.5905C14.8302 8.60303 14.6336 8.55674 14.4625 8.45751C14.2914 8.35827 14.1536 8.21054 14.0665 8.03299L14.0185 7.91599L13.8885 7.53799C13.7513 7.1358 13.5302 6.76736 13.2399 6.45704C12.9496 6.14673 12.5967 5.90164 12.2045 5.73799L12.0195 5.66799L11.6415 5.53899C11.4543 5.47513 11.2903 5.35719 11.1701 5.20009C11.0499 5.04299 10.9791 4.85379 10.9664 4.65641C10.9538 4.45903 11 4.26234 11.0992 4.0912C11.1983 3.92007 11.346 3.78219 11.5235 3.69499L11.6415 3.64699L12.0195 3.51699C12.4217 3.37979 12.7901 3.15871 13.1005 2.86839C13.4108 2.57808 13.6559 2.22515 13.8195 1.83299L13.8895 1.64799L14.0185 1.26999C14.0859 1.07257 14.2133 0.901172 14.3829 0.779777C14.5526 0.658381 14.7559 0.59307 14.9645 0.592987Z" fill="white"/>
</svg>
