<svg width="29" height="29" viewBox="0 0 29 29" fill="none" xmlns="http://www.w3.org/2000/svg">
<path d="M12.3152 26.1522C12.3152 26.7316 12.5454 27.2873 12.9551 27.6971C13.3649 28.1068 13.9206 28.337 14.5 28.337C15.0794 28.337 15.6351 28.1068 16.0449 27.6971C16.4546 27.2873 16.6848 26.7316 16.6848 26.1522V16.6848H26.1522C26.7316 16.6848 27.2873 16.4546 27.697 16.0449C28.1068 15.6352 28.337 15.0795 28.337 14.5C28.337 13.9206 28.1068 13.3649 27.697 12.9551C27.2873 12.5454 26.7316 12.3152 26.1522 12.3152H16.6848V2.84784C16.6848 2.2684 16.4546 1.71269 16.0449 1.30296C15.6351 0.893237 15.0794 0.663055 14.5 0.663055C13.9206 0.663055 13.3649 0.893237 12.9551 1.30296C12.5454 1.71269 12.3152 2.2684 12.3152 2.84784V12.3152H2.84783C2.26839 12.3152 1.71268 12.5454 1.30295 12.9551C0.893226 13.3649 0.663044 13.9206 0.663044 14.5C0.663044 15.0795 0.893226 15.6352 1.30295 16.0449C1.71268 16.4546 2.26839 16.6848 2.84783 16.6848H12.3152V26.1522Z" fill="url(#paint0_linear_22_758)"/>
<defs>
<linearGradient id="paint0_linear_22_758" x1="14.5" y1="0.663055" x2="14.5" y2="28.337" gradientUnits="userSpaceOnUse">
<stop stop-color="white"/>
<stop offset="1" stop-color="#D9D9D9"/>
</linearGradient>
</defs>
</svg>
